<mxfile host="app.diagrams.net" modified="2024-05-16T14:24:41.284Z" agent="Mozilla/5.0 (Windows NT 10.0; Win64; x64) AppleWebKit/537.36 (KHTML, like Gecko) Chrome/124.0.0.0 Safari/537.36" version="24.4.2" etag="MYKsY8WiY5imHCtix1Xx" type="github">
  <diagram name="Trang-1" id="iT_6pwfq_kNxKx7eXwXt">
    <mxGraphModel>
      <root>
        <mxCell id="0" />
        <mxCell id="1" parent="0" />
      </root>
    </mxGraphModel>
  </diagram>
</mxfile>
